<svg
   id="svg58"
   viewBox="0 0 224 224"
   version="1.1"
   xml:space="preserve"
   height="224"
   width="224"
   xmlns="http://www.w3.org/2000/svg"
   xmlns:svg="http://www.w3.org/2000/svg"><defs
   id="defs62" />
    <path
   d="m 26.268869,8.2398583 c 2.888325,0.3090903 6.347309,1.9623417 10.949679,5.0218987 20.061654,13.336572 28.305564,17.780354 54.740473,29.508354 11.988659,5.318824 29.246189,14.629824 52.436219,28.289969 17.78675,10.477321 73.19656,48.00673 76.268,51.65691 3.90885,4.64542 4.32844,8.41716 1.54474,13.87501 -3.33931,6.54721 -3.56977,6.6593 -60.59706,29.54198 -20.88665,8.38093 -49.1541,19.75039 -62.816261,25.26575 -39.844577,16.08512 -52.231228,19.81457 -76.297654,22.9694 -6.534586,0.85662 -11.970325,1.50454 -12.081043,1.43993 -0.110717,-0.0646 -1.0948459,-0.34401 -2.1855807,-0.62108 -6.1227464,-1.55526 -9.9886994,-8.90771 -7.42901142,-14.12618 2.49150392,-5.07948 5.66508272,-6.33816 25.15498412,-9.96666 25.109524,-4.67473 34.98861,-7.90034 72.361633,-23.6241 23.495503,-9.88514 84.286723,-34.96176 90.963823,-37.52282 1.48212,-0.56847 0.17796,-1.83433 -6.58246,-6.39259 -4.63693,-3.12646 -14.57693,-10.02138 -22.09121,-15.32281 C 132.70596,88.547443 99.86757,69.849504 77.557903,60.945078 55.606473,52.183634 26.706947,35.33079 19.075226,26.840068 14.549305,21.804731 14.418264,15.612479 18.744918,11.285831 21.063809,8.9669423 23.380534,7.930767 26.268869,8.2398583 Z"
   style="fill:#000000"
   id="path222" />
  </svg>
